<?xml version='1.0' encoding='utf-8'?>
<svg xmlns="http://www.w3.org/2000/svg" viewBox="0 0 64 64"><rect width="64" height="64" rx="14" fill="#005eb8"/><path d="M14 21h36v22H14z" fill="#ffffff" opacity="0.98"/><path d="M14 21l18 13 18-13" fill="none" stroke="#005eb8" stroke-width="3" stroke-linecap="round" stroke-linejoin="round"/><path d="M44 13c3 2 5 5 5 8 0 4-3 6-5 7-2-1-5-3-5-7 0-3 2-6 5-8z" fill="#7cc7ff"/><path d="M44 16c1 1 2 2 2 4 0 2-1 3-2 4-1-1-2-2-2-4 0-2 1-3 2-4z" fill="#ffffff" opacity="0.95"/></svg>